<svg width="146" height="16" viewBox="0 0 146 16" fill="none" xmlns="http://www.w3.org/2000/svg">
<path fill-rule="evenodd" clip-rule="evenodd" d="M1.38978 7.49121V0.00026549L5.17053 2.01624V5.39127L10.1755 5.39369L14.0176 7.49121H1.38978ZM11.199 4.77365V0L15.0817 1.96582V7.02916L11.199 4.77365ZM11.199 13.9294V10.5835L6.15539 10.58C6.1601 10.6023 2.24954 8.44897 2.24954 8.44897L15.0817 8.50919V16L11.199 13.9294ZM1.38965 13.9294L1.38978 9.03427L5.17054 11.2364V15.8951L1.38965 13.9294Z" fill="#1D1E20"/>
<path d="M28.4851 4.30322H30.3762V12.6119H28.4851V9.08713H25.3108V12.6119H23.4197V4.30322H25.3108V7.4808H28.4851V4.30322Z" fill="#1D1E20"/>
<path d="M34.8243 8.40038C34.8243 8.80801 34.8751 9.17815 34.9744 9.50353C35.0749 9.83374 35.2202 10.118 35.4078 10.3527C35.5955 10.5873 35.8279 10.77 36.0991 10.8994C36.3727 11.0264 36.6851 11.0941 37.0386 11.0941C37.3921 11.0941 37.696 11.0264 37.972 10.8994C38.2493 10.7724 38.4829 10.5873 38.6706 10.3527C38.8582 10.118 39.0035 9.83374 39.104 9.50353C39.2033 9.17573 39.2541 8.80559 39.2541 8.40038C39.2541 7.99517 39.2033 7.61899 39.104 7.28394C39.0035 6.95372 38.8582 6.66584 38.6706 6.43118C38.4829 6.19652 38.2493 6.01387 37.972 5.88445C37.6948 5.75744 37.3836 5.6897 37.0386 5.6897C36.6936 5.6897 36.3715 5.75744 36.0991 5.89049C35.8255 6.02234 35.5955 6.20861 35.4078 6.44448C35.2202 6.67914 35.0749 6.96703 34.9744 7.29724C34.8739 7.63109 34.8243 7.9988 34.8243 8.40038ZM41.1973 8.40038C41.1973 9.11404 41.0907 9.7406 40.8789 10.2825C40.6658 10.8244 40.3752 11.2744 40.006 11.6421C39.6367 12.0037 39.1972 12.2795 38.6875 12.467C38.1766 12.6497 37.6294 12.7416 37.0422 12.7416C36.4551 12.7416 35.9345 12.6497 35.4284 12.467C34.9236 12.2795 34.4804 12.0037 34.1039 11.6421C33.7262 11.2744 33.4296 10.8244 33.2117 10.2825C32.9962 9.7406 32.886 9.11404 32.886 8.40038C32.886 7.68673 32.9998 7.05653 33.2238 6.51464C33.4489 5.97275 33.7516 5.51673 34.133 5.15144C34.5143 4.78009 34.955 4.50552 35.4575 4.31803C35.9599 4.13539 36.4877 4.04346 37.041 4.04346C37.5943 4.04346 38.1488 4.13539 38.6548 4.31803C39.1597 4.50552 39.6028 4.7813 39.9793 5.15144C40.3558 5.51915 40.6537 5.97275 40.8692 6.51464C41.0871 7.05653 41.1948 7.6831 41.1948 8.40038H41.1961H41.1973Z" fill="#1D1E20"/>
<path d="M45.9227 11.1449C46.1878 11.1449 46.407 11.1207 46.5801 11.0772C46.752 11.0337 46.8925 10.9732 46.9942 10.8982C47.0983 10.822 47.1697 10.7313 47.2121 10.626C47.252 10.522 47.2726 10.4035 47.2726 10.274C47.2726 10.0019 47.1443 9.77568 46.8876 9.59666C46.6309 9.41402 46.1891 9.2229 45.5631 9.01002C45.2895 8.91446 45.0159 8.80318 44.7447 8.6798C44.4711 8.55642 44.2265 8.40159 44.0098 8.2129C43.7943 8.02178 43.6164 7.79559 43.4796 7.52706C43.344 7.25491 43.275 6.92832 43.275 6.5473C43.275 6.16628 43.3464 5.81429 43.4917 5.50585C43.6357 5.19377 43.8403 4.93129 44.1067 4.7172C44.3718 4.50189 44.6927 4.33376 45.0704 4.21885C45.4481 4.10394 45.8731 4.04346 46.3477 4.04346C46.9106 4.04346 47.3961 4.10273 47.8065 4.22248C48.2157 4.34223 48.5523 4.47891 48.8186 4.62164L48.2775 6.10096C48.0438 5.98121 47.7859 5.87235 47.5002 5.78284C47.2145 5.69091 46.8719 5.64374 46.4711 5.64374C46.022 5.64374 45.6975 5.70785 45.5002 5.83122C45.3028 5.9546 45.206 6.14572 45.206 6.40215C45.206 6.55698 45.2423 6.6864 45.3137 6.78922C45.3852 6.89324 45.4881 6.9888 45.62 7.07347C45.7532 7.15693 45.9058 7.23313 46.0789 7.30208C46.2508 7.36982 46.4409 7.44118 46.6503 7.51255C47.0837 7.67221 47.4603 7.83067 47.7823 7.98792C48.1031 8.14758 48.3695 8.32781 48.5838 8.53828C48.7968 8.74512 48.9554 8.98945 49.0596 9.27129C49.1637 9.54949 49.2169 9.89301 49.2169 10.291C49.2169 11.0687 48.9433 11.6747 48.3973 12.1017C47.8525 12.5311 47.028 12.7476 45.9288 12.7476C45.5595 12.7476 45.2266 12.7234 44.9287 12.6799C44.6309 12.6364 44.3682 12.5843 44.1394 12.5202C43.9106 12.4525 43.7144 12.3848 43.5486 12.3134C43.3851 12.242 43.2459 12.1743 43.1345 12.1102L43.6648 10.6188C43.9142 10.7542 44.2205 10.8776 44.5861 10.9865C44.9517 11.0941 45.3997 11.1498 45.93 11.1498H45.9251L45.9227 11.1449Z" fill="#1D1E20"/>
<path d="M57.4881 4.23486V5.83877H54.9699V12.5762H53.0922V5.83877H50.574V4.23486H57.4881Z" fill="#1D1E20"/>
<path d="M59.5767 12.575H61.4544V4.23486H59.5767V12.575Z" fill="#1D1E20"/>
<path d="M69.865 12.575C69.3263 11.617 68.7439 10.6771 68.1192 9.74452C67.4921 8.81435 66.8262 7.93982 66.1204 7.10884V12.575H64.2668V4.23486H65.7971C66.0623 4.50097 66.3553 4.82514 66.6773 5.211C66.9981 5.59444 67.325 6.00449 67.6592 6.44357C67.9921 6.88265 68.3226 7.33261 68.6519 7.80314C68.9812 8.27367 69.2899 8.72363 69.5793 9.15909V4.23607H71.4474V12.5762H69.8674L69.865 12.575Z" fill="#1D1E20"/>
<path d="M78.3248 5.67761C77.4495 5.67761 76.8176 5.92073 76.4265 6.40699C76.0367 6.89324 75.843 7.55609 75.843 8.39675C75.843 8.80801 75.8902 9.17815 75.987 9.5132C76.0827 9.84342 76.228 10.1313 76.4205 10.3696C76.6142 10.6127 76.8539 10.799 77.1432 10.932C77.4326 11.0639 77.7691 11.1268 78.1541 11.1268C78.3636 11.1268 78.5428 11.1232 78.6905 11.1147C78.8382 11.1111 78.9689 11.0905 79.0827 11.0675V8.16935H80.9605V12.2952C80.7365 12.3823 80.3745 12.4779 79.8769 12.5795C79.3781 12.6787 78.7655 12.7307 78.0331 12.7307C77.4059 12.7307 76.8369 12.6351 76.3284 12.4404C75.8175 12.2493 75.3829 11.9699 75.0221 11.5997C74.6613 11.232 74.3805 10.7784 74.1856 10.2402C73.9882 9.7019 73.8914 9.08743 73.8914 8.39796C73.8914 7.7085 73.9991 7.08194 74.217 6.5473C74.4337 6.00903 74.7316 5.55544 75.1093 5.17926C75.4858 4.80791 75.9301 4.52487 76.441 4.33013C76.9495 4.13901 77.4955 4.04346 78.0718 4.04346C78.4653 4.04346 78.8212 4.06765 79.1384 4.11966C79.4556 4.1753 79.7268 4.23457 79.958 4.30231C80.1857 4.37005 80.3757 4.43778 80.5246 4.51278C80.6723 4.58414 80.7789 4.63978 80.843 4.6797L80.3007 6.182C80.0428 6.04653 79.7486 5.92557 79.4157 5.82639C79.0827 5.7272 78.7183 5.67519 78.3248 5.67519V5.67882V5.67761Z" fill="#1D1E20"/>
<path d="M83.5916 12.575V4.23486H89.2285V5.81337H85.4705V7.44752H88.8071V8.98611H85.4705V10.9952H89.5057V12.5737H83.5916V12.575Z" fill="#1D1E20"/>
<path d="M94.3263 5.74091C94.1907 5.74091 94.0684 5.74453 93.9582 5.753C93.8505 5.76147 93.7476 5.77236 93.6519 5.77719V8.04154H94.1822C94.888 8.04154 95.3953 7.95445 95.7004 7.77543C96.0055 7.60004 96.1592 7.30006 96.1592 6.87308C96.1592 6.44609 96.0043 6.17515 95.6955 5.99855C95.388 5.828 94.9316 5.7397 94.3275 5.7397L94.3263 5.74091ZM94.2185 4.14062C95.4716 4.14062 96.4292 4.36319 97.0975 4.81073C97.7634 5.25344 98.0975 5.94775 98.0975 6.88396C98.0975 7.47061 97.9631 7.94356 97.6931 8.31127C97.4244 8.67294 97.037 8.96082 96.5309 9.1725C96.6992 9.37934 96.8759 9.62005 97.0612 9.88615C97.2452 10.1583 97.4292 10.4365 97.6096 10.7268C97.7912 11.0207 97.9655 11.3256 98.1338 11.6437C98.3033 11.9582 98.4583 12.2702 98.6024 12.5763H96.5006C96.3469 12.3017 96.1931 12.0259 96.0357 11.7429C95.8783 11.4647 95.7173 11.1925 95.5515 10.9252C95.3856 10.6627 95.2234 10.4111 95.0623 10.1752C94.9001 9.93696 94.7379 9.72044 94.5781 9.52933H93.6507V12.5763H91.7729V4.35593C92.1822 4.2761 92.6059 4.22046 93.0429 4.18901C93.48 4.15756 93.8723 4.14183 94.2173 4.14183H94.2185V4.14062Z" fill="#1D1E20"/>
<path d="M106.248 4.28369H105.703V12.6141H106.248V4.28369Z" fill="#1D1E20"/>
<path d="M116.656 9.1136C116.786 9.27447 116.949 9.48615 117.147 9.74863C117.344 10.0111 117.548 10.3014 117.758 10.6195C117.967 10.9377 118.176 11.2703 118.381 11.6174C118.587 11.9646 118.763 12.2984 118.908 12.6214H117.625C117.464 12.3154 117.288 12.0045 117.098 11.69C116.908 11.3755 116.717 11.0755 116.523 10.7889C116.329 10.5022 116.138 10.2349 115.948 9.9845C115.758 9.73411 115.587 9.51639 115.433 9.33132C115.328 9.33979 115.222 9.34342 115.113 9.34342H113.726V12.6214H112.552V4.35993C112.883 4.27888 113.252 4.22445 113.66 4.19663C114.068 4.16881 114.441 4.1543 114.78 4.1543C115.958 4.1543 116.856 4.37565 117.473 4.81957C118.091 5.26349 118.4 5.92392 118.4 6.80329C118.4 7.3597 118.252 7.83507 117.958 8.2306C117.663 8.62613 117.229 8.92006 116.656 9.1136ZM114.876 5.18244C114.376 5.18244 113.993 5.19454 113.726 5.21873V8.37575H114.562C114.965 8.37575 115.328 8.35519 115.651 8.31527C115.975 8.27536 116.247 8.19794 116.469 8.08545C116.69 7.97296 116.862 7.81329 116.983 7.60766C117.104 7.40203 117.165 7.12988 117.165 6.79119C117.165 6.4767 117.104 6.21422 116.983 6.00496C116.862 5.7957 116.699 5.62999 116.493 5.50903C116.287 5.38807 116.045 5.3034 115.766 5.25502C115.488 5.20664 115.191 5.18244 114.876 5.18244Z" fill="#1D1E20"/>
<path d="M119.743 9.48809C119.743 8.93168 119.824 8.44543 119.985 8.03054C120.146 7.61565 120.361 7.27092 120.627 6.99635C120.893 6.72177 121.2 6.51614 121.547 6.37946C121.895 6.24277 122.249 6.17383 122.612 6.17383C123.46 6.17383 124.11 6.43752 124.562 6.96611C125.013 7.4947 125.24 8.29907 125.24 9.37923V9.56672C125.24 9.64292 125.236 9.71428 125.228 9.77839H120.918C120.966 10.4316 121.156 10.9275 121.487 11.2662C121.817 11.6049 122.334 11.7742 123.036 11.7742C123.432 11.7742 123.765 11.7403 124.035 11.6714C124.305 11.6024 124.51 11.5359 124.646 11.4718L124.804 12.4153C124.667 12.4879 124.426 12.5641 124.083 12.6451C123.741 12.7262 123.351 12.7661 122.915 12.7661C122.367 12.7661 121.892 12.6838 121.493 12.5181C121.093 12.3524 120.764 12.125 120.506 11.8347C120.248 11.5444 120.056 11.1997 119.931 10.8005C119.805 10.4013 119.743 9.96346 119.743 9.48809ZM124.065 8.8712C124.074 8.36318 123.947 7.94587 123.684 7.61928C123.421 7.29269 123.06 7.1294 122.6 7.1294C122.342 7.1294 122.114 7.1802 121.916 7.2806C121.719 7.38099 121.551 7.51284 121.414 7.67371C121.277 7.83459 121.169 8.02086 121.093 8.23012C121.017 8.43938 120.966 8.65348 120.942 8.8712H124.065Z" fill="#1D1E20"/>
<path d="M128.896 6.17383C129.348 6.17383 129.729 6.23189 130.04 6.34922C130.351 6.46655 130.601 6.63105 130.791 6.84515C130.981 7.05924 131.115 7.31326 131.196 7.60719C131.278 7.90112 131.318 8.22649 131.318 8.5809V12.5121C131.221 12.5278 131.085 12.5508 130.912 12.5786C130.739 12.6064 130.543 12.633 130.325 12.6572C130.107 12.6814 129.871 12.7032 129.617 12.7237C129.362 12.7443 129.11 12.754 128.86 12.754C128.505 12.754 128.178 12.7177 127.879 12.6451C127.58 12.5725 127.322 12.4576 127.104 12.3004C126.886 12.1431 126.717 11.9351 126.596 11.6774C126.475 11.4198 126.414 11.1089 126.414 10.7461C126.414 10.3832 126.485 10.1014 126.626 9.85097C126.768 9.60058 126.959 9.39979 127.201 9.24617C127.443 9.09256 127.725 8.98007 128.049 8.90749C128.372 8.83492 128.711 8.79863 129.066 8.79863C129.178 8.79863 129.296 8.80468 129.417 8.81677C129.538 8.82887 129.653 8.84459 129.762 8.86516C129.871 8.88572 129.965 8.90386 130.046 8.91959C130.127 8.93531 130.183 8.94741 130.216 8.95587V8.64138C130.216 8.45632 130.195 8.27246 130.155 8.09102C130.115 7.90958 130.043 7.74871 129.937 7.60719C129.832 7.46567 129.689 7.35317 129.508 7.2685C129.326 7.18383 129.09 7.1415 128.799 7.1415C128.428 7.1415 128.103 7.16811 127.825 7.22012C127.546 7.27213 127.338 7.32656 127.201 7.38341L127.068 6.45203C127.213 6.38792 127.455 6.32503 127.794 6.26455C128.133 6.20407 128.5 6.17383 128.896 6.17383ZM128.993 11.8105C129.259 11.8105 129.495 11.8044 129.701 11.7924C129.907 11.7803 130.079 11.7585 130.216 11.7258V9.85097C130.135 9.81105 130.004 9.77597 129.822 9.74815C129.641 9.72033 129.42 9.70582 129.163 9.70582C128.993 9.70582 128.814 9.71791 128.624 9.7421C128.434 9.7663 128.261 9.8171 128.103 9.8933C127.946 9.96951 127.815 10.0747 127.71 10.2078C127.604 10.3409 127.552 10.5162 127.552 10.734C127.552 11.1368 127.682 11.4174 127.94 11.5746C128.198 11.7319 128.549 11.8105 128.993 11.8105Z" fill="#1D1E20"/>
<path d="M135.917 12.7661C135.408 12.7661 134.963 12.685 134.579 12.5242C134.195 12.3633 133.873 12.1371 133.61 11.8468C133.348 11.5565 133.153 11.2118 133.023 10.8126C132.894 10.4134 132.83 9.97193 132.83 9.48809C132.83 9.00426 132.9 8.56034 133.041 8.15755C133.183 7.75476 133.383 7.4064 133.641 7.11126C133.899 6.81733 134.216 6.58751 134.591 6.42179C134.966 6.25608 135.384 6.17383 135.844 6.17383C136.126 6.17383 136.41 6.19802 136.692 6.2464C136.974 6.29479 137.245 6.37099 137.503 6.47622L137.249 7.4318C137.079 7.35075 136.883 7.28665 136.661 7.23826C136.44 7.18988 136.204 7.16569 135.953 7.16569C135.324 7.16569 134.842 7.36285 134.506 7.75839C134.171 8.15392 134.004 8.72968 134.004 9.48809C134.004 9.82678 134.043 10.1376 134.119 10.4195C134.195 10.7013 134.316 10.9432 134.482 11.1452C134.648 11.3472 134.86 11.5021 135.118 11.6109C135.376 11.7198 135.69 11.7742 136.062 11.7742C136.361 11.7742 136.631 11.7464 136.873 11.6895C137.115 11.6327 137.305 11.5722 137.442 11.5081L137.6 12.4516C137.535 12.4915 137.442 12.5302 137.321 12.5665C137.2 12.6028 137.063 12.6354 136.91 12.6633C136.756 12.6911 136.592 12.7153 136.419 12.7358C136.246 12.7564 136.078 12.7661 135.917 12.7661Z" fill="#1D1E20"/>
<path d="M138.812 12.6203V3.42742L139.938 3.23389V6.45138C140.147 6.37034 140.371 6.30865 140.61 6.2639C140.848 6.21914 141.084 6.19737 141.318 6.19737C141.818 6.19737 142.234 6.26753 142.565 6.40905C142.895 6.55057 143.161 6.74773 143.358 7.00174C143.555 7.25576 143.694 7.56057 143.776 7.91498C143.857 8.26939 143.897 8.6613 143.897 9.08828V12.6203H142.771V9.3302C142.771 8.94313 142.744 8.61291 142.692 8.33834C142.64 8.06376 142.553 7.84241 142.432 7.67306C142.311 7.50372 142.15 7.38034 141.947 7.30414C141.745 7.22794 141.496 7.18923 141.197 7.18923C141.076 7.18923 140.951 7.1977 140.821 7.21342C140.692 7.22915 140.57 7.24729 140.452 7.26785C140.335 7.28842 140.231 7.31019 140.137 7.33438C140.044 7.35857 139.978 7.37914 139.938 7.39486V12.6203H138.812Z" fill="#1D1E20"/>
</svg>
